<?xml version="1.0" ?><svg viewBox="0 0 32 32" xmlns="http://www.w3.org/2000/svg"><title/><g id="Sofa"><path d="M26,10.91V7.41A5.41,5.41,0,0,0,20.59,2H11.41A5.42,5.42,0,0,0,6,7.41v3.5c-2.28.38-4,2-4,4v10a1,1,0,0,0,1,1H4v3.22a1,1,0,0,0,1,1H9a1,1,0,0,0,1-1V25.89H22v3.22a1,1,0,0,0,1,1h4a1,1,0,0,0,1-1V25.89h1a1,1,0,0,0,1-1v-10C30,12.94,28.28,11.29,26,10.91ZM8,20.25V18.62A1.63,1.63,0,0,1,9.62,17H22.38A1.63,1.63,0,0,1,24,18.62v1.63ZM8,7.41A3.41,3.41,0,0,1,11.41,4h9.18A3.41,3.41,0,0,1,24,7.41v8a3.53,3.53,0,0,0-1.62-.4H9.62A3.53,3.53,0,0,0,8,15.4v-8Zm0,20.7H6V25.89H8Zm18,0H24V25.89h2Zm2-4.22H4v-9c0-.89.85-1.68,2-2v8.3H6a1,1,0,0,0,1,1H25a1,1,0,0,0,1-1h0V13c1.15.29,2,1.08,2,2Z"/></g></svg>